Dragon.Tiger.Gate.2006.BRrip.720p.Triple.Audio.Chi-Eng-Hindi~MSBHATTI

IMDB:- http://www.imdb.com/title/tt0482930/

PLOT:- Three young martial arts masters emerge from the back streets of Hong Kong to help the powerless fight injustice.

Director: Wilson Yip
Writers: Yuk Long Wong (comic series Dragon and the Tiger Heroes), Edmond Wong (screenplay)
Stars: Donnie Yen, Nicholas Tse and Shawn Yue

INFO:-
General
Complete name                    : Dragon.Tiger.Gate.2006.BRrip.720p.Triple.Audio.Chi-Eng-Hindi~MSBHATTI
Format                           : Matroska
File size                        : 2.43 GiB
Duration                         : 1h 30mn
Overall bit rate                 : 3 839 Kbps
Encoded date                     : UTC 2011-12-31 18:48:17
Writing application              : mkvmerge v3.3.0 ('Language') built on Mar 24 2010 14:59:24
Writing library                  : libebml v0.8.0 + libmatroska v0.9.0

Video
ID                               : 1
Format                           : AVC
Format/Info                      : Advanced Video Codec
Format profile                   : High@L4.1
Format settings, CABAC           : Yes
Format settings, ReFrames        : 10 frames
Format settings, GOP             : M=1, N=32
Codec ID                         : V_MPEG4/ISO/AVC
Duration                         : 1h 30mn
Bit rate                         : 2 545 Kbps
Width                            : 1 280 pixels
Height                           : 544 pixels
Display aspect ratio             : 2.35:1
Frame rate                       : 25.000 fps
Original frame rate              : 23.976 fps
Color space                      : YUV
Chroma subsampling               : 4:2:0
Bit depth                        : 8 bits
Scan type                        : Progressive
Bits/(Pixel*Frame)               : 0.146
Stream size                      : 1.65 GiB (68%)
Writing library                  : x264 core 116 r2037 f8ebd4a
Encoding settings                : cabac=1 / ref=10 / deblock=1:-3:-3 / analyse=0x3:0x113 / me=tesa / subme=11 / psy=1 / psy_rd=1.00:0.00 / mixed_ref=1 / me_range=16 / chroma_me=1 / trellis=2 / 8x8dct=1 / cqm=0 / deadzone=21,11 / fast_pskip=0 / chroma_qp_offset=-2 / threads=12 / sliced_threads=0 / nr=0 / decimate=0 / interlaced=0 / bluray_compat=0 / constrained_intra=0 / bframes=6 / b_pyramid=2 / b_adapt=2 / b_bias=0 / direct=3 / weightb=1 / open_gop=0 / weightp=2 / keyint=250 / keyint_min=23 / scenecut=40 / intra_refresh=0 / rc=2pass / mbtree=0 / bitrate=2545 / ratetol=1.0 / qcomp=0.60 / qpmin=0 / qpmax=69 / qpstep=4 / cplxblur=20.0 / qblur=0.5 / ip_ratio=1.40 / pb_ratio=1.30 / aq=1:0.75
Language                         : Chinese

Audio #1
ID                               : 2
Format                           : AC-3
Format/Info                      : Audio Coding 3
Mode extension                   : CM (complete main)
Codec ID                         : A_AC3
Duration                         : 1h 30mn
Bit rate mode                    : Constant
Bit rate                         : 640 Kbps
Channel(s)                       : 6 channels
Channel positions                : Front: L C R, Side: L R, LFE
Sampling rate                    : 48.0 KHz
Bit depth                        : 16 bits
Compression mode                 : Lossy
Stream size                      : 414 MiB (17%)
Title                            : MSBHATTI
Language                         : Chinese

Audio #2
ID                               : 4
Format                           : MPEG Audio
Format version                   : Version 1
Format profile                   : Layer 3
Codec ID                         : A_MPEG/L3
Codec ID/Hint                    : MP3
Duration                         : 1h 30mn
Bit rate mode                    : Constant
Bit rate                         : 256 Kbps
Channel(s)                       : 2 channels
Sampling rate                    : 48.0 KHz
Compression mode                 : Lossy
Stream size                      : 166 MiB (7%)
Title                            : MSBHATTI
Language                         : English

Audio #3
ID                               : 5
Format                           : MPEG Audio
Format version                   : Version 1
Format profile                   : Layer 3
Codec ID                         : A_MPEG/L3
Codec ID/Hint                    : MP3
Duration                         : 1h 30mn
Bit rate mode                    : Constant
Bit rate                         : 256 Kbps
Channel(s)                       : 2 channels
Sampling rate                    : 48.0 KHz
Compression mode                 : Lossy
Stream size                      : 166 MiB (7%)
Title                            : MSBHATTI
Language                         : Hindi

Text #1
ID                               : 3
Format                           : UTF-8
Codec ID                         : S_TEXT/UTF8
Codec ID/Info                    : UTF-8 Plain Text
Title                            : MSBHATTI
Language                         : Vietnamese

Text #2
ID                               : 6
Format                           : UTF-8
Codec ID                         : S_TEXT/UTF8
Codec ID/Info                    : UTF-8 Plain Text
Title                            : MSBHATTI
Language                         : English

SCREENSHOTS:-
[IMG]http://i.imgur.com/cceRx.png[/IMG]
[IMG]http://i.imgur.com/JXvvp.jpg[/IMG]
[IMG]http://i.imgur.com/aRdax.jpg[/IMG]

NOTE:- IF U LIKE MY WORK SO COMMENT PLZ

REGARDS

MSBHATTI